<svg width="28" height="28" viewBox="0 0 28 28" fill="none" xmlns="http://www.w3.org/2000/svg">
<path d="M27.1228 19.9544C27.0874 9.64688 18.3317 0.91 8.00275 0.877188L7.36575 0.875L7.21263 1.49363L1.19787 25.8186L0.875 27.125L2.18094 26.7995L26.5081 20.7441L27.125 20.5901L27.1228 19.9544ZM14.9673 22.7815C14.5963 21.7879 13.7607 20.9519 12.5046 21.2704C11.4673 21.5329 10.7682 22.7408 11.0469 23.7571L1.98538 26.0129L7.273 4.627C15.5024 5.87563 22.1183 12.4898 23.3695 20.6898L14.9673 22.7815" fill="white"/>
<path d="M6.52921 17.7634C6.85991 17.7645 7.18757 17.7002 7.49327 17.574C7.79897 17.4479 8.07665 17.2624 8.31027 17.0284C8.54421 16.7953 8.72971 16.5183 8.85608 16.2132C8.98246 15.9081 9.0472 15.581 9.04658 15.2508C9.04717 14.9208 8.98241 14.5939 8.85603 14.2891C8.72966 13.9842 8.54417 13.7074 8.31027 13.4746C8.12171 13.2869 7.79052 13.286 7.60283 13.4746C7.50946 13.5683 7.45708 13.6952 7.45716 13.8275C7.45724 13.9598 7.50978 14.0866 7.60327 14.1802C7.88896 14.4651 8.04689 14.8466 8.04689 15.2512C8.04689 15.6559 7.89027 16.037 7.60414 16.3218C7.03014 16.8932 6.02827 16.8932 5.45646 16.3227C5.36154 16.2311 5.23482 16.18 5.10296 16.18C4.97109 16.18 4.84437 16.2311 4.74946 16.3227C4.70315 16.369 4.66642 16.4239 4.64137 16.4844C4.61633 16.5449 4.60345 16.6097 4.60349 16.6752C4.60354 16.7406 4.61649 16.8055 4.64161 16.8659C4.66673 16.9264 4.70353 16.9813 4.74989 17.0275C4.98311 17.2617 5.26044 17.4473 5.56586 17.5736C5.87127 17.6999 6.1987 17.7644 6.52921 17.7634V17.7634ZM13.7904 11.0171C13.7168 11.3277 13.7148 11.6511 13.7847 11.9626C13.874 12.3579 14.0726 12.7203 14.3579 13.0082C14.6432 13.2961 15.0037 13.498 15.3982 13.5909C15.5151 13.6177 15.6379 13.5971 15.7397 13.5337C15.8415 13.4702 15.9141 13.3691 15.9416 13.2523C15.9648 13.1358 15.9427 13.0148 15.8797 12.9141C15.8166 12.8134 15.7175 12.7406 15.6025 12.7107C14.959 12.5615 14.5197 11.8702 14.672 11.221C14.747 10.9001 14.9464 10.622 15.2263 10.448C15.5062 10.274 15.8437 10.2183 16.1647 10.2931C16.2824 10.3202 16.4045 10.3005 16.5064 10.2362C16.6088 10.1723 16.681 10.0721 16.7072 9.95399C16.7225 9.88837 16.7234 9.82055 16.709 9.75449C16.69 9.67149 16.6482 9.59546 16.5883 9.53499C16.5284 9.47452 16.4527 9.43205 16.3699 9.41236C16.095 9.34768 15.8099 9.33831 15.5314 9.3848C15.2528 9.43129 14.9862 9.53272 14.7472 9.68318C14.5072 9.83087 14.2989 10.0249 14.1346 10.2539C13.9704 10.4829 13.8533 10.7424 13.7904 11.0171V11.0171ZM17.7813 18.7071C17.489 18.6277 17.1826 18.6153 16.8848 18.6707C16.5077 18.7409 16.1579 18.9157 15.8754 19.1751C15.5929 19.4346 15.389 19.7683 15.2871 20.1381C15.2726 20.1923 15.2689 20.2489 15.2763 20.3046C15.2837 20.3602 15.302 20.4139 15.3301 20.4624C15.3582 20.511 15.3956 20.5536 15.4402 20.5877C15.4847 20.6219 15.5356 20.6469 15.5898 20.6614C15.6993 20.6879 15.8148 20.6715 15.9125 20.6154C16.0102 20.5593 16.0826 20.4679 16.1148 20.3599C16.278 19.7579 16.9478 19.3677 17.5568 19.5331C17.7063 19.5728 17.8463 19.6417 17.9689 19.736C18.0914 19.8303 18.1941 19.9479 18.2708 20.0821C18.427 20.3542 18.469 20.6706 18.3872 20.9729C18.3682 21.0427 18.3672 21.1163 18.3845 21.1866C18.4017 21.2569 18.4366 21.3217 18.4858 21.3748C18.5349 21.428 18.5969 21.4677 18.6656 21.4903C18.7344 21.5129 18.8078 21.5176 18.879 21.504C18.9584 21.4892 19.0321 21.4524 19.0917 21.3978C19.1512 21.3432 19.1942 21.273 19.2158 21.1951C19.2858 20.9378 19.3041 20.6692 19.2696 20.4048C19.2351 20.1404 19.1486 19.8854 19.015 19.6547C18.882 19.4232 18.7045 19.2203 18.4927 19.0577C18.281 18.8951 18.0392 18.7759 17.7813 18.7071V18.7071ZM16.1218 15.5522C15.5544 13.8915 13.7326 12.9968 12.0478 13.5537C10.3639 14.1116 9.45652 15.911 10.0222 17.57C10.5883 19.2334 12.411 20.1263 14.0971 19.5685C15.7784 19.012 16.6858 17.2126 16.1218 15.5522V15.5522ZM17.5 17.0739C17.8399 18.0709 18.9354 18.6086 19.95 18.2735C20.9606 17.9375 21.5044 16.8577 21.1666 15.8598C20.8258 14.8627 19.7295 14.3251 18.7193 14.6584C17.7069 14.9944 17.1618 16.0746 17.5 17.0739V17.0739ZM7.84652 10.2357C8.31114 11.5951 9.80214 12.3261 11.1803 11.8689C12.5553 11.4131 13.2982 9.94086 12.8366 8.5833C12.3716 7.22661 10.8819 6.49555 9.50377 6.95099C8.12914 7.40599 7.38627 8.87818 7.84652 10.2357ZM9.01639 19.9421C8.53689 18.5439 7.00127 17.7901 5.58289 18.2569C4.16802 18.7281 3.40371 20.2422 3.87839 21.6396C4.35396 23.0422 5.88827 23.7934 7.31058 23.3236C8.72633 22.8532 9.49021 21.3391 9.01639 19.9421Z" fill="white"/>
</svg>
